<?xml version="1.0" encoding="UTF-8"?>
<!DOCTYPE svg PUBLIC "-//W3C//DTD SVG 1.1//EN" "http://www.w3.org/Graphics/SVG/1.1/DTD/svg11.dtd">
<!-- Creator: CorelDRAW X8 -->
<svg xmlns="http://www.w3.org/2000/svg" xml:space="preserve" width="210mm" height="297mm" version="1.1" style="shape-rendering:geometricPrecision; text-rendering:geometricPrecision; image-rendering:optimizeQuality; fill-rule:evenodd; clip-rule:evenodd"
viewBox="0 0 21000 29700"
 xmlns:xlink="http://www.w3.org/1999/xlink">
 <defs>
  <style type="text/css">
   <![CDATA[
    .fil3 {fill:black}
    .fil4 {fill:#050505}
    .fil2 {fill:#2B2A28}
    .fil15 {fill:#363636}
    .fil14 {fill:#383838}
    .fil10 {fill:#484848}
    .fil9 {fill:#4C4C4C}
    .fil7 {fill:#515151}
    .fil5 {fill:#5B5B5B}
    .fil12 {fill:#5D5D5D}
    .fil11 {fill:#7E7E7E}
    .fil13 {fill:#858585}
    .fil8 {fill:#874937}
    .fil6 {fill:#A85C45}
    .fil0 {fill:#E07B5C}
    .fil1 {fill:#E27C5D}
   ]]>
  </style>
 </defs>
 <g id="Vrstva_x0020_1">
  <metadata id="CorelCorpID_0Corel-Layer"/>
  <g id="_2590501523200">
   <g id="_2379593633696">
    <polygon class="fil0" points="10859,14762 10859,14359 10157,14358 10157,14760 "/>
    <path class="fil0" d="M10584 15332l700 2c0,-63 7,-365 -3,-401l-695 0 -2 399z"/>
    <polygon class="fil1" points="9711,15332 9802,15332 10413,15331 10412,15210 10411,15109 10410,15023 10410,14973 10411,14936 9714,14936 "/>
    <path class="fil2" d="M10157 14358l702 1 0 403c7,9 4,-1 3,14l-717 -1 -1 -413 13 -4zm-69 460c0,11 3,14 14,14l815 0 0 -528 -829 0 0 514z"/>
    <path class="fil3" d="M11317 15355l9 -7c0,3 0,9 0,11 -2,10 -1,6 -4,10l-15 0c6,-6 6,-5 10,-14zm-768 -3c26,20 39,12 76,12 125,0 574,-5 663,2l-731 5c-10,-7 -10,7 -8,-19zm769 -419c5,6 2,-2 5,9l-6 394 1 -403zm-37 0c12,8 8,-6 8,49 0,80 4,308 -1,353 -31,8 -441,2 -531,2l-136 0c-46,1 -32,1 -37,-5l2 -399 695 0zm-734 401c0,-20 -3,-375 2,-395l3 -6c11,19 5,349 5,401l-10 0zm38 -434c14,-9 690,-9 703,0 -15,11 -308,5 -353,5 -18,0 -335,6 -350,-5zm732 14c-3,-15 3,-5 -7,-10l-9 -9 24 3 1 23 -9 -7zm-767 -16c16,-2 10,-3 21,2 -14,9 -12,11 -23,19l2 -21zm-25 -25c-11,48 -4,441 -4,523l832 0 0 -496c0,-15 -8,-32 -22,-32 -91,0 -777,-6 -806,5z"/>
    <path class="fil3" d="M9675 15360c9,-7 -5,-2 7,-2 1,0 7,1 8,1 58,10 453,6 530,6l212 -5c22,-5 -7,-2 20,-9 1,19 5,23 -18,22 -227,-5 -428,-4 -655,-5l-83 5c-29,-1 -16,-4 -21,-13zm36 -428l704 1 0 403 -705 0 1 -404zm-32 404c-6,-14 -7,-401 -2,-438 37,-8 723,-3 733,1 -11,9 -26,6 -44,6l-681 -1c0,73 0,146 0,219 0,17 6,200 -6,213zm765 -411c-3,-17 -2,-14 -10,-23 -4,-7 -9,2 0,-7l19 2 0 437c-12,-7 -9,14 -8,-47 0,-17 0,-33 0,-50l-1 -312zm-797 -43l0 514 833 0c0,-82 6,-475 -5,-523 -10,-3 -10,-5 -23,-5l-791 0c-11,0 -14,3 -14,13l0 1z"/>
    <path class="fil4" d="M10859 14762l-702 -2 0 -402 -13 4 1 413 717 1c1,-15 4,-5 -3,-14z"/>
    <path class="fil5" d="M9679 15336c12,-13 6,-196 6,-213 0,-73 0,-146 0,-219l681 1c18,0 33,3 44,-6 -10,-4 -696,-9 -733,-1 -5,37 -4,424 2,438z"/>
    <path class="fil6" d="M9714 14936l697 0 -1 37 0 50 1 86 1 101 1 121 -611 1 -91 0 3 -396zm-4 400l705 0 0 -403 -704 -1 -1 404z"/>
    <path class="fil7" d="M10585 14900c15,11 332,5 350,5 45,0 338,6 353,-5 -13,-9 -689,-9 -703,0z"/>
    <path class="fil8" d="M10584 15332c5,6 -9,6 37,5l136 0c90,0 500,6 531,-2 5,-45 1,-273 1,-353 0,-55 4,-41 -8,-49 10,36 3,338 3,401l-700 -2z"/>
    <path class="fil9" d="M9675 15360c5,9 -8,12 21,13l83 -5c227,1 428,0 655,5 23,1 19,-3 18,-22 -27,7 2,4 -20,9l-212 5c-77,0 -472,4 -530,-6 -1,0 -7,-1 -8,-1 -12,0 2,-5 -7,2z"/>
    <path class="fil7" d="M10547 15334l10 0c0,-52 6,-382 -5,-401l-3 6c-5,20 -2,375 -2,395z"/>
    <path class="fil10" d="M10434 14902l15 -3c0,15 3,16 -5,26l1 312c0,17 0,33 0,50 -1,61 -4,40 8,47l0 -437 -19 -2c-9,9 -4,0 0,7z"/>
    <path class="fil5" d="M10625 15364c-37,0 -50,8 -76,-12 -2,26 -2,12 8,19l731 -5c-89,-7 -538,-2 -663,-2z"/>
    <path class="fil11" d="M11317 15336l6 -394c-3,-11 0,-3 -5,-9l-1 403z"/>
    <path class="fil12" d="M10548 14919c11,-8 9,-10 23,-19 -11,-5 -5,-4 -21,-2l-2 21z"/>
    <path class="fil13" d="M10444 14925c8,-10 5,-11 5,-26l-15 3c8,9 7,6 10,23z"/>
    <path class="fil14" d="M11310 14904l12 -7c0,25 -1,12 -5,17l9 7 -1 -23 -24 -3 9 9z"/>
    <path class="fil11" d="M11322 15369c0,-23 0,-9 -5,-14 -4,9 -4,8 -10,14l15 0z"/>
    <path class="fil11" d="M11317 14914c4,-5 5,8 5,-17l-12 7c10,5 4,-5 7,10z"/>
    <path class="fil15" d="M11322 15369c3,-4 2,0 4,-10 0,-2 0,-8 0,-11l-9 7c5,5 5,-9 5,14z"/>
   </g>
  </g>
 </g>
</svg>
