<?xml version="1.0" encoding="UTF-8"?>
<!DOCTYPE svg PUBLIC "-//W3C//DTD SVG 1.1//EN" "http://www.w3.org/Graphics/SVG/1.1/DTD/svg11.dtd">
<!-- Creator: CorelDRAW X8 -->
<svg xmlns="http://www.w3.org/2000/svg" xml:space="preserve" width="105mm" height="148mm" version="1.1" style="shape-rendering:geometricPrecision; text-rendering:geometricPrecision; image-rendering:optimizeQuality; fill-rule:evenodd; clip-rule:evenodd"
viewBox="0 0 10500 14800"
 xmlns:xlink="http://www.w3.org/1999/xlink">
 <defs>
  <style type="text/css">
   <![CDATA[
    .fil0 {fill:#2B2A29}
    .fil1 {fill:#4C887B}
    .fil3 {fill:#E01E24}
    .fil2 {fill:#EE7D1A}
   ]]>
  </style>
 </defs>
 <g id="Vrstva_x0020_1">
  <metadata id="CorelCorpID_0Corel-Layer"/>
  <g id="_2379593735024">
   <path class="fil0" d="M6606 7696c49,-168 282,-553 406,-675 77,-76 96,-93 163,-176 75,28 73,35 117,101l553 818c-216,51 -425,103 -663,90 -267,-15 -372,-100 -576,-158zm-557 -499c-74,-46 -110,-119 -156,-199 -346,-595 -226,-1191 178,-1716 134,-174 800,-890 951,-1011 125,-101 202,-218 320,-315 221,256 180,1009 252,1386 93,482 458,285 762,126 79,-42 188,-120 268,-147 354,734 391,1402 -139,2024 -373,-248 -798,-1331 -1152,-1423 -282,-73 -446,217 -594,369 -79,81 -104,66 -169,151 -109,141 -462,615 -521,755zm-2414 -1436c43,-152 255,-482 337,-616l1043 -1708c102,89 395,583 484,738 326,569 211,336 -62,747 -769,1157 -495,2619 671,3321 228,138 659,218 801,409 59,78 362,708 397,824l-4544 -10c35,-322 1445,-2425 1642,-2999 89,-260 19,-408 -183,-512 -117,-60 -442,-169 -586,-194zm-856 244c0,258 383,323 578,380 93,27 154,56 243,77 -49,209 -212,441 -312,624 -116,214 -240,390 -357,601l-413 750c-38,62 -54,97 -91,160 -140,237 -642,1042 -642,1242 -1,132 72,232 192,277 227,85 597,19 892,43 367,31 896,22 1302,22 207,0 321,-23 524,-23 -26,724 -169,1278 434,1278 137,0 213,-325 230,-477 25,-229 -2,-525 -2,-801 399,0 718,23 1118,23l1186 0c1297,0 85,-1106 -45,-1666 391,-8 1036,-315 1329,-610 336,-338 587,-844 587,-1352 0,-587 -1,-837 -221,-1399 -67,-170 -118,-270 -212,-403 -205,-290 -355,-329 -663,-139 -314,194 -108,109 -355,-691 -101,-325 -394,-859 -785,-859 -221,0 -128,-52 -368,248 -74,94 -135,169 -212,267 -103,131 -338,448 -492,489 -304,-454 -246,-309 -525,-867 -101,-202 -357,-799 -616,-799 -312,0 -560,507 -726,780 -360,598 -1578,2497 -1578,2825z"/>
   <path class="fil1" d="M3635 5761c144,25 469,134 586,194 202,104 272,252 183,512 -197,574 -1607,2677 -1642,2999l4544 10c-35,-116 -338,-746 -397,-824 -142,-191 -573,-271 -801,-409 -1166,-702 -1440,-2164 -671,-3321 273,-411 388,-178 62,-747 -89,-155 -382,-649 -484,-738l-1043 1708c-82,134 -294,464 -337,616z"/>
   <path class="fil2" d="M6049 7197c59,-140 412,-614 521,-755 65,-85 90,-70 169,-151 148,-152 312,-442 594,-369 354,92 779,1175 1152,1423 530,-622 493,-1290 139,-2024 -80,27 -189,105 -268,147 -304,159 -669,356 -762,-126 -72,-377 -31,-1130 -252,-1386 -118,97 -195,214 -320,315 -151,121 -817,837 -951,1011 -404,525 -524,1121 -178,1716 46,80 82,153 156,199z"/>
   <path class="fil3" d="M6606 7696c204,58 309,143 576,158 238,13 447,-39 663,-90l-553 -818c-44,-66 -42,-73 -117,-101 -67,83 -86,100 -163,176 -124,122 -357,507 -406,675z"/>
  </g>
 </g>
</svg>
