<?xml version="1.0" encoding="UTF-8"?>
<!DOCTYPE svg PUBLIC "-//W3C//DTD SVG 1.1//EN" "http://www.w3.org/Graphics/SVG/1.1/DTD/svg11.dtd">
<!-- Creator: CorelDRAW X8 -->
<svg xmlns="http://www.w3.org/2000/svg" xml:space="preserve" width="105mm" height="148mm" version="1.1" style="shape-rendering:geometricPrecision; text-rendering:geometricPrecision; image-rendering:optimizeQuality; fill-rule:evenodd; clip-rule:evenodd"
viewBox="0 0 10500 14800"
 xmlns:xlink="http://www.w3.org/1999/xlink">
 <defs>
  <style type="text/css">
   <![CDATA[
    .fil0 {fill:#010101}
    .fil1 {fill:#717170}
    .fil2 {fill:darkgray}
   ]]>
  </style>
 </defs>
 <g id="Vrstva_x0020_1">
  <metadata id="CorelCorpID_0Corel-Layer"/>
  <g id="_2379680727792">
   <path class="fil0" d="M9658 9539c-213,77 -1046,275 -1271,292l-1173 -4907c120,33 954,520 1162,629 112,58 181,108 279,171 167,108 139,40 180,247 123,612 353,1502 505,2152 52,221 330,1277 318,1416zm57 -1691c-18,-37 -57,-26 175,-66l-274 -1165c-65,-29 -107,-4 -193,16l-16 -48 -185 -796c-1,-2 -2,-9 -3,-11 -22,-65 -74,-41 -144,-93 -40,-31 -50,-68 -168,-142l-749 -436c-146,-77 -1066,-608 -1170,-632 -162,306 -96,320 -26,642 52,234 104,429 159,671 52,231 102,435 161,669 29,115 56,222 81,322 34,140 35,224 99,351 -211,-33 -711,125 -930,185 -156,43 -298,69 -459,110l-2343 550c-488,110 -3456,810 -3690,934 66,282 162,943 308,1162 286,-24 1493,-338 1850,-427l3690 -887c316,-79 598,-145 920,-218l915 -223 350 1452c38,159 107,328 269,350 128,17 1346,-254 1493,-354 230,-159 95,-247 259,-357 -82,-171 -72,-256 -91,-348l-73 -272c-19,-74 -8,-44 -14,-100l-144 -585c-1,-3 -2,-10 -3,-13l-46 -158c-21,-64 -36,31 -8,-83z"/>
   <path class="fil1" d="M8387 9831c225,-17 1058,-215 1271,-292 12,-139 -266,-1195 -318,-1416 -152,-650 -382,-1540 -505,-2152 -41,-207 -13,-139 -180,-247 -98,-63 -167,-113 -279,-171 -208,-109 -1042,-596 -1162,-629l1173 4907z"/>
   <path class="fil2" d="M9715 7848c94,-10 141,-24 213,-30 -22,-106 6,-44 -10,-133 -10,-57 -30,-81 -44,-140l-207 -912c-16,-14 -44,-14 -51,-16l274 1165c-232,40 -193,29 -175,66z"/>
   <path class="fil2" d="M9407 6585l16 48c86,-20 128,-45 193,-16 8,-98 9,-31 -20,-56l-189 24z"/>
  </g>
 </g>
</svg>
