<?xml version="1.0" encoding="UTF-8"?>
<!DOCTYPE svg PUBLIC "-//W3C//DTD SVG 1.1//EN" "http://www.w3.org/Graphics/SVG/1.1/DTD/svg11.dtd">
<!-- Creator: CorelDRAW X8 -->
<svg xmlns="http://www.w3.org/2000/svg" xml:space="preserve" width="105mm" height="148mm" version="1.1" style="shape-rendering:geometricPrecision; text-rendering:geometricPrecision; image-rendering:optimizeQuality; fill-rule:evenodd; clip-rule:evenodd"
viewBox="0 0 10500 14800"
 xmlns:xlink="http://www.w3.org/1999/xlink">
 <defs>
  <style type="text/css">
   <![CDATA[
    .fil0 {fill:black}
    .fil2 {fill:#FCFCFC}
    .fil1 {fill:#FEFEFE}
   ]]>
  </style>
 </defs>
 <g id="Vrstva_x0020_1">
  <metadata id="CorelCorpID_0Corel-Layer"/>
  <g id="_2379567971648">
   <path class="fil0" d="M6747 8443c86,0 118,20 176,50l-34 116c-90,4 -112,-17 -168,-51l26 -115zm-2079 -3318l350 0c331,22 658,108 959,260 354,178 477,258 766,546 267,268 373,437 541,771 211,419 265,778 265,1275 0,410 -252,1028 -443,1404l-43 70c53,79 129,145 129,275 0,169 6,117 -76,184l-164 159c-276,220 -404,500 -792,123l-400 -361c-407,-314 -78,-550 54,-769 176,-293 422,-697 422,-1069 0,-499 -144,-812 -388,-1134 -392,-516 -1124,-661 -1686,-325 -182,109 -356,279 -468,455 -381,597 -386,1214 -21,1817 41,67 66,115 111,182 264,394 444,518 140,824l-462 412c-130,126 -151,151 -336,151 -104,0 -317,-195 -393,-272 -208,-210 -350,-290 -234,-518 32,-63 57,-66 92,-118l-166 -352c-223,-520 -320,-812 -320,-1414 0,-332 108,-631 232,-918 141,-328 348,-625 598,-876 469,-470 1096,-740 1733,-782zm-1945 3371c53,-33 82,-65 178,-50l15 117c-45,27 -84,50 -165,44l-28 -111zm4104 -575c-24,-24 -58,-80 -20,-118 4,-4 209,-108 166,130 -72,19 -93,41 -146,-12zm-4064 -136c-21,56 -37,116 -75,144 -28,-49 -24,-69 -15,-131l90 -13zm3958 -507c-49,-94 -19,-196 126,-170l27 91c-47,63 -61,79 -153,79zm-3761 -109c-15,54 -16,71 -50,104 -49,24 -158,-58 -114,-159l54 -13c54,1 84,38 110,68zm3340 -618c16,-77 42,-108 115,-125 38,29 40,34 63,77 4,28 -71,219 -178,48zm-3077 -118c84,16 99,39 123,114 -17,32 -31,46 -52,71 -85,-7 -116,-38 -141,-120l70 -65z"/>
   <path class="fil1" d="M6973 7933c43,-238 -162,-134 -166,-130 -38,38 -4,94 20,118 53,53 74,31 146,12z"/>
   <path class="fil1" d="M6721 8558c56,34 78,55 168,51l34 -116c-58,-30 -90,-50 -176,-50l-26 115z"/>
   <path class="fil1" d="M2723 8496l28 111c81,6 120,-17 165,-44l-15 -117c-96,-15 -125,17 -178,50z"/>
   <path class="fil1" d="M6300 6551c107,171 182,-20 178,-48 -23,-43 -25,-48 -63,-77 -73,17 -99,48 -115,125z"/>
   <path class="fil1" d="M3153 6498c25,82 56,113 141,120 21,-25 35,-39 52,-71 -24,-75 -39,-98 -123,-114l-70 65z"/>
   <path class="fil1" d="M6721 7278c92,0 106,-16 153,-79l-27 -91c-145,-26 -175,76 -126,170z"/>
   <path class="fil1" d="M2796 7114c-44,101 65,183 114,159 34,-33 35,-50 50,-104 -26,-30 -56,-67 -110,-68l-54 13z"/>
   <path class="fil2" d="M2673 7798c-9,62 -13,82 15,131 38,-28 54,-88 75,-144l-90 13z"/>
  </g>
 </g>
</svg>
