<?xml version="1.0" encoding="UTF-8"?>
<!DOCTYPE svg PUBLIC "-//W3C//DTD SVG 1.1//EN" "http://www.w3.org/Graphics/SVG/1.1/DTD/svg11.dtd">
<!-- Creator: CorelDRAW X8 -->
<svg xmlns="http://www.w3.org/2000/svg" xml:space="preserve" width="105mm" height="148mm" version="1.1" style="shape-rendering:geometricPrecision; text-rendering:geometricPrecision; image-rendering:optimizeQuality; fill-rule:evenodd; clip-rule:evenodd"
viewBox="0 0 10500 14800"
 xmlns:xlink="http://www.w3.org/1999/xlink">
 <defs>
  <style type="text/css">
   <![CDATA[
    .fil2 {fill:black}
    .fil10 {fill:#282827}
    .fil9 {fill:#292929}
    .fil0 {fill:#2A2928}
    .fil4 {fill:#2B2929}
    .fil11 {fill:#2B2A28}
    .fil5 {fill:#2C2B2A}
    .fil8 {fill:#4C4C4B}
    .fil7 {fill:#575757}
    .fil3 {fill:#5A5A5A}
    .fil6 {fill:#6F6F6E}
    .fil1 {fill:#717170}
   ]]>
  </style>
 </defs>
 <g id="Vrstva_x0020_1">
  <metadata id="CorelCorpID_0Corel-Layer"/>
  <g id="_2379600035728">
   <path class="fil0" d="M2517 8957c82,-191 259,-163 218,-470l141 10c-37,92 -92,177 -144,264 -78,130 -74,136 -215,196zm5426 1357c17,73 13,14 -34,38 -74,-38 -291,-61 -386,-62 -147,-2 -214,75 -238,213l41 141c-1295,104 -2957,72 -4310,83 -180,2 -379,-35 -438,26l-55 122c-560,-337 -379,-427 -1376,-795 45,-103 117,-208 175,-311 152,-270 294,-563 525,-758 144,-122 577,-820 786,-1014 101,-94 172,-158 257,-244l-294 507c35,36 30,-25 40,131 -42,-6 -31,0 -57,-9 -76,-28 -19,-4 -50,-26 -222,103 -338,316 -484,509l-292 446c-59,93 -64,60 -92,162 25,53 -147,445 282,374 182,-30 325,-190 449,-327 -48,759 1019,-27 901,-966 -16,-123 -72,-135 -168,-187l235 -210c137,-127 -101,104 27,-24 78,-78 110,-178 116,-289 -15,2 -70,9 -78,9l-47 -8c-2,0 -10,-2 -14,-5 120,-97 85,-157 52,-307l-146 -81c410,-254 945,-425 1505,-506 -58,121 -93,89 -246,285 -199,254 -509,639 -620,947l954 -1206c108,-106 187,-53 419,-126 11,-3 21,-62 209,22 72,32 108,55 171,101 448,329 126,170 707,405 -6,2 -47,18 -49,19 -57,32 -19,8 -49,32 295,215 1172,1747 1443,2176 120,189 374,542 403,802 -110,-24 -98,-31 -174,-89zm54 -7703c-116,134 -584,1342 -821,1621 -390,459 -970,606 -1353,1087 -258,325 -341,733 -341,1311 -49,-23 -114,-35 -173,-49 34,-146 114,-175 148,-321 -29,22 -121,132 -151,170 -60,76 -74,141 -194,151 0,-1629 64,-1517 899,-2627 59,-80 487,-603 507,-677l-661 622c-220,218 -421,422 -640,642 -272,272 -397,431 -334,913l131 1152c-92,-25 -129,-92 -192,-154 -63,-64 -109,-110 -172,-173 -124,-123 -260,-218 -277,-438 -36,-466 9,-952 -67,-1363 -61,-327 -219,-272 -402,-1028l-235 -998c-24,-95 -7,-74 -61,-136l158 1222c61,435 157,756 235,1146 64,320 116,1006 168,1213 82,324 616,694 672,709l0 49c-242,0 -855,197 -1057,274 -961,367 -1511,1120 -2106,1913 -124,166 -767,1088 -636,1314 49,86 346,157 464,204 279,112 419,221 647,339 63,32 168,83 222,123 92,69 50,124 147,174 89,47 189,3 298,47 139,55 322,189 468,223 -66,-90 -231,-158 -296,-247 590,0 879,6 1454,-25 232,-12 504,0 740,0 436,1 2793,-64 3047,-281 108,-91 22,-174 183,-187 -88,-121 -50,26 -73,-124 -37,-233 18,-172 -147,-469 -103,-186 -210,-336 -327,-512 -372,-557 -499,-858 -975,-1491 -267,-356 -921,-1134 -1264,-1226 0,-653 234,-1025 634,-1363 81,-69 142,-127 225,-193l454 -360c329,-317 474,-495 631,-972 49,-147 413,-1092 423,-1205z"/>
   <path class="fil1" d="M4372 9836c-205,32 -987,409 -934,-71 41,-375 742,-71 910,45 60,-76 40,-162 155,-214 192,-88 754,132 937,185 -112,89 -688,241 -867,223 -129,-12 -142,-74 -201,-168zm245 -672c-76,84 -194,173 -338,209 -410,105 -400,-496 -8,-399 140,35 252,129 346,190zm2203 189l171 85c-76,46 -220,67 -310,82 114,68 291,98 419,185l-167 126c278,156 450,34 493,309 -136,81 -277,134 -490,117 -238,-18 -299,-61 -330,-287 -262,-32 -270,-236 -138,-400 -402,-11 -814,271 -1060,168 -166,-69 -166,-324 3,-394 123,-51 415,30 549,59 1,-416 382,-232 635,-158 -79,-361 229,-377 457,-240l170 127c2,2 8,8 11,13 -159,115 -203,145 -413,208zm-1127 -414c-104,68 -356,177 -506,191 -193,18 -405,1 -384,-225 37,-385 701,-65 890,34zm-975 -1541c262,-135 804,95 893,170 -215,55 -344,151 -600,190 -289,44 -410,-109 -293,-360zm0 0c-94,74 -183,207 -261,304 -89,112 -168,220 -256,328 31,23 13,23 83,24 13,0 93,-12 112,-14 255,-34 448,-17 706,-15 -31,60 -421,323 -505,359 -543,231 -468,-20 -551,-151 -47,118 -214,364 -294,513 -100,182 -183,376 -262,577 -113,284 -320,1011 -457,1203 42,73 -49,24 105,48l453 -4c-192,-152 -147,-431 137,-413 231,15 407,120 595,199 5,-3 12,-16 14,-12 2,4 11,-9 13,-12 183,-180 332,-164 464,95 -21,41 -22,37 -48,74 -45,64 -18,11 -54,80l833 -6 251 -30 -29 -211c-61,17 -226,63 -307,56 -316,-26 -278,-632 337,-352l219 103c4,3 10,7 15,10l27 23c110,87 158,46 361,77 232,36 461,124 691,151l55 16 -58 34c-100,13 -225,33 -292,80l470 -29c24,-138 91,-215 238,-213 95,1 312,24 386,62 47,-24 51,35 34,-38 -45,-202 -376,-675 -487,-850 -86,-134 -162,-279 -243,-423 -73,-129 -200,-295 -248,-415 -186,-67 -585,349 -711,15 -252,43 -947,317 -968,-65 -22,-405 700,-174 936,-102 87,-71 99,-127 270,-126 268,2 256,77 298,18 -73,-82 -179,-239 -217,-328 -241,46 -603,333 -744,1 -147,44 -330,108 -404,-46 -73,-155 24,-463 418,-242 130,73 55,19 204,18 220,-1 294,117 417,138l-323 -432c-76,-82 -138,-74 -250,-145 -88,-56 -150,-107 -223,-170 -227,-194 -203,-179 -528,-131 -210,30 -149,15 -252,142 -66,83 -139,141 -170,227z"/>
   <path class="fil2" d="M3416 7533c310,-147 568,-290 954,-354 -33,74 -194,266 -263,369 -478,703 -925,1752 -1167,2580 -203,692 17,302 -500,522 -132,-172 -775,-556 -1079,-641 54,-148 220,-400 300,-536 28,-102 33,-69 92,-162l292 -446c146,-193 262,-406 484,-509l67 -96 294 -507c-85,86 -156,150 -257,244 -209,194 -642,892 -786,1014 -231,195 -373,488 -525,758 -58,103 -130,208 -175,311 997,368 816,458 1376,795l55 -122c59,-61 258,-24 438,-26 1353,-11 3015,21 4310,-83l-41 -141 -470 29c-215,28 -746,168 -947,77 -160,-73 -110,-10 -323,-34l-833 6c-156,58 -168,106 -324,1l-212 -7c-143,50 -893,19 -1110,19 -41,-8 -51,-6 -33,-68 137,-192 344,-919 457,-1203 79,-201 162,-395 262,-577 80,-149 247,-395 294,-513l114 -162c19,-21 6,59 27,-28 2,-8 10,-9 14,-13 88,-108 167,-216 256,-328 78,-97 167,-230 261,-304 31,-86 104,-144 170,-227 103,-127 42,-112 252,-142 325,-48 301,-63 528,131 73,63 135,114 223,170 112,71 174,63 250,145l323 432c68,48 93,66 109,131 38,89 144,246 217,328l52 62c55,52 128,76 206,96l-32 28c-76,78 -39,14 -51,74 48,120 175,286 248,415 81,144 157,289 243,423 111,175 442,648 487,850 76,58 64,65 174,89 -29,-260 -283,-613 -403,-802 -271,-429 -1148,-1961 -1443,-2176 30,-24 -8,0 49,-32 2,-1 43,-17 49,-19 -581,-235 -259,-76 -707,-405 -63,-46 -99,-69 -171,-101 -188,-84 -198,-25 -209,-22 -232,73 -311,20 -419,126l-954 1206c111,-308 421,-693 620,-947 153,-196 188,-164 246,-285 -560,81 -1095,252 -1505,506l146 81z"/>
   <path class="fil3" d="M3416 7533c33,150 68,210 -52,307 4,3 12,5 14,5l47 8c8,0 63,-7 78,-9 -6,111 -38,211 -116,289 -128,128 110,-103 -27,24l-235 210c96,52 152,64 168,187 118,939 -949,1725 -901,966 -124,137 -267,297 -449,327 -429,71 -257,-321 -282,-374 -80,136 -246,388 -300,536 304,85 947,469 1079,641 517,-220 297,170 500,-522 242,-828 689,-1877 1167,-2580 69,-103 230,-295 263,-369 -386,64 -644,207 -954,354z"/>
   <path class="fil4" d="M6820 9353c210,-63 254,-93 413,-208 -3,-5 -9,-11 -11,-13l-170 -127c-228,-137 -536,-121 -457,240 -253,-74 -634,-258 -635,158 -134,-29 -426,-110 -549,-59 -169,70 -169,325 -3,394 246,103 658,-179 1060,-168 -132,164 -124,368 138,400 31,226 92,269 330,287 213,17 354,-36 490,-117 -43,-275 -215,-153 -493,-309l167 -126c-128,-87 -305,-117 -419,-185 90,-15 234,-36 310,-82l-171 -85z"/>
   <path class="fil4" d="M5545 10575c213,24 163,-39 323,34 201,91 732,-49 947,-77 67,-47 192,-67 292,-80l3 -50c-230,-27 -459,-115 -691,-151 -203,-31 -251,10 -361,-77l-27 -23c-5,-3 -11,-7 -15,-10l-219 -103c-615,-280 -653,326 -337,352 81,7 246,-39 307,-56l29 211 -251 30z"/>
   <path class="fil4" d="M4372 9836c59,94 72,156 201,168 179,18 755,-134 867,-223 -183,-53 -745,-273 -937,-185 -115,52 -95,138 -155,214 -168,-116 -869,-420 -910,-45 -53,480 729,103 934,71z"/>
   <path class="fil4" d="M6965 8626c12,-60 -25,4 51,-74l32 -28c-78,-20 -151,-44 -206,-96l-52 -62c-42,59 -30,-16 -298,-18 -171,-1 -183,55 -270,126 -236,-72 -958,-303 -936,102 21,382 716,108 968,65 126,334 525,-82 711,-15z"/>
   <path class="fil4" d="M3033 10526c-18,62 -8,60 33,68 217,0 967,31 1110,-19l-342 -17c137,-3 378,-128 497,-179l57 203c156,105 168,57 324,-1 36,-69 9,-16 54,-80 26,-37 27,-33 48,-74 -132,-259 -281,-275 -464,-95 -2,3 -11,16 -13,12 -2,-4 -9,9 -14,12 -188,-79 -364,-184 -595,-199 -284,-18 -329,261 -137,413l-453 4c-154,-24 -63,25 -105,-48z"/>
   <path class="fil4" d="M6573 8038c-16,-65 -41,-83 -109,-131 -123,-21 -197,-139 -417,-138 -149,1 -74,55 -204,-18 -394,-221 -491,87 -418,242 74,154 257,90 404,46 141,332 503,45 744,-1z"/>
   <path class="fil5" d="M4201 8030c-4,4 -12,5 -14,13 -21,87 -8,7 -27,28l-114 162c83,131 8,382 551,151 84,-36 474,-299 505,-359 -258,-2 -451,-19 -706,15 -19,2 -99,14 -112,14 -70,-1 -52,-1 -83,-24z"/>
   <path class="fil4" d="M4718 7398c-117,251 4,404 293,360 256,-39 385,-135 600,-190 -89,-75 -631,-305 -893,-170z"/>
   <path class="fil4" d="M5693 8939c-189,-99 -853,-419 -890,-34 -21,226 191,243 384,225 150,-14 402,-123 506,-191z"/>
   <path class="fil4" d="M4617 9164c-94,-61 -206,-155 -346,-190 -392,-97 -402,504 8,399 144,-36 262,-125 338,-209z"/>
   <path class="fil6" d="M4176 10575l212 7 -57 -203c-119,51 -360,176 -497,179l342 17z"/>
   <path class="fil7" d="M2517 8957c141,-60 137,-66 215,-196 52,-87 107,-172 144,-264l-141 -10c41,307 -136,279 -218,470z"/>
   <path class="fil7" d="M2529 8356c31,22 -26,-2 50,26 26,9 15,3 57,9 -10,-156 -5,-95 -40,-131l-67 96z"/>
   <polygon class="fil8" points="7107,10452 7165,10418 7110,10402 "/>
   <polygon class="fil9" points="6567,3228 6591,3228 6571,3199 "/>
   <polygon class="fil10" points="7997,2611 8025,2563 "/>
   <polygon class="fil4" points="6567,3228 6542,3252 "/>
   <polygon class="fil11" points="6542,3252 6518,3277 "/>
  </g>
 </g>
</svg>
