<?xml version="1.0" encoding="UTF-8"?>
<!DOCTYPE svg PUBLIC "-//W3C//DTD SVG 1.1//EN" "http://www.w3.org/Graphics/SVG/1.1/DTD/svg11.dtd">
<!-- Creator: CorelDRAW X8 -->
<svg xmlns="http://www.w3.org/2000/svg" xml:space="preserve" width="105mm" height="148mm" version="1.1" style="shape-rendering:geometricPrecision; text-rendering:geometricPrecision; image-rendering:optimizeQuality; fill-rule:evenodd; clip-rule:evenodd"
viewBox="0 0 10500 14800"
 xmlns:xlink="http://www.w3.org/1999/xlink">
 <defs>
  <style type="text/css">
   <![CDATA[
    .fil0 {fill:black}
    .fil1 {fill:#211D24}
    .fil2 {fill:#2484C0}
    .fil3 {fill:#FDFDFD}
   ]]>
  </style>
 </defs>
 <g id="Vrstva_x0020_1">
  <metadata id="CorelCorpID_0Corel-Layer"/>
  <g id="_2379567966752">
   <path class="fil0" d="M6426 5703l3 3c-1,0 -4,-2 -3,-3zm-1499 -33c67,0 254,25 331,25l618 0c15,28 33,59 51,85 96,0 413,-68 482,-68 -2,1 -5,0 -6,3 0,2 -4,2 -5,2l-102 25c-408,82 -792,53 -1194,-27 -37,-7 -59,-12 -90,-20l-85 -25zm-33 -9c4,-4 48,5 15,5 0,0 -1,-1 -1,-1 -8,-2 -29,10 -14,-4zm-500 -144l3 3c-1,-1 -4,-2 -3,-3zm-1813 -18c113,-60 377,-100 526,-105 980,-35 2066,728 3274,434 178,-43 320,-108 483,-155 -29,121 -242,282 -344,344 -136,81 -335,149 -519,176 -390,56 -878,-23 -1237,-114 -636,-160 -1238,-514 -1851,-579 -124,-13 -214,-1 -332,-1zm1060 -405c228,121 336,185 555,317l190 106 -260 -71c-87,-25 -181,-43 -267,-63l-276 -54c-29,-11 -11,-25 16,-107 13,-39 32,-87 42,-128zm-127 220c4,0 13,0 16,0 15,5 9,3 17,8l-33 -8zm-60 -9c4,-4 48,5 16,5 0,0 -2,0 -2,0 -7,-2 -28,10 -14,-5zm-67 -8c9,-9 46,13 13,4 -7,-2 -28,10 -13,-4zm390 -1220l134 -64c49,35 171,188 214,231 68,-15 382,-83 420,-107 43,-59 48,-246 85,-323 9,-8 146,-17 165,8 15,41 18,141 31,197 22,96 13,104 107,130 106,28 281,71 394,75 31,-71 129,-195 185,-224 46,21 81,58 129,77l-98 339c63,45 70,34 141,107 267,273 149,147 506,88 17,47 53,86 62,138 -44,20 -155,123 -183,157 -71,87 -53,39 -2,250 23,95 42,196 112,236 75,43 214,28 274,74 13,33 7,92 3,132l-479 74 -42 -78c-475,-4 -937,33 -1372,-119 -324,-112 -775,-474 -982,-508l-85 240 -139 -16c-13,-60 32,-177 29,-249 -34,-19 -58,-54 -108,-95l-105 -100 72 -126 326 97c25,-24 58,-74 120,-133 267,-255 149,-163 86,-508zm388 52c-30,-21 -75,-76 -103,-108 -21,-24 -26,-37 -51,-60 -14,-13 -14,-11 -28,-22 -73,-57 -29,-65 -176,9 -39,19 -112,62 -150,71 2,47 32,129 45,175 62,223 82,151 -59,292 -39,39 -79,69 -104,117 -63,-31 -274,-79 -339,-110 -8,30 -58,102 -78,134 -14,24 -26,45 -41,68 -14,24 -28,42 -42,69l100 95c135,136 150,73 122,244 -9,52 -27,127 -27,177 49,0 64,9 119,9l-178 0c-457,0 -713,144 -1071,292l-131 63c131,0 275,5 394,-12 496,-70 661,-46 1165,121 112,37 232,84 338,127l344 131c173,68 527,176 717,214 558,110 1138,167 1647,-124 144,-82 302,-222 379,-375 21,-43 60,-136 62,-192 -23,11 -93,17 -121,24l-336 112c0,-272 31,-290 -213,-338 -31,-7 -89,-16 -111,-25 -45,-19 -65,-149 -78,-201 -10,-43 -21,-73 -30,-114 36,-54 195,-181 254,-220l-144 -279c-33,2 -58,13 -88,21 -34,10 -56,14 -88,23 -56,15 -120,35 -180,49 -25,-37 -70,-74 -104,-108 -43,-43 -65,-70 -116,-104 13,-55 33,-120 50,-170l52 -169 -254 -160c-99,66 -116,79 -189,167 -76,93 -10,82 -223,41 -62,-12 -108,-26 -164,-39 -3,-35 -16,-66 -22,-105 -34,-214 5,-234 -291,-234 -108,0 -82,30 -104,117 -13,54 -30,121 -41,179 -13,70 11,49 -135,85 -57,15 -119,29 -178,43z"/>
   <path class="fil1" d="M5968 5542l-1030 7c26,-126 279,-247 408,-324 77,-46 157,-93 238,-135 86,-45 150,-82 247,-119 52,59 91,149 117,245 35,128 31,191 20,326zm-1166 -145c27,-34 61,-59 91,-93 49,-56 161,-266 204,-337l254 -473c115,12 219,96 276,155 48,50 144,169 164,259 -53,60 -571,335 -705,412 -88,50 -159,83 -284,77zm-724 -910c42,74 72,147 116,222l249 429c52,99 70,134 92,263 -158,-34 -336,-165 -464,-238 -75,-43 -148,-80 -224,-123 -111,-65 -141,-97 -208,-139 20,-87 122,-211 169,-258 71,-71 145,-121 270,-156zm659 865l-3 -1061c95,-18 239,6 325,28 123,33 159,66 249,114 -11,109 -362,706 -466,838 -13,17 -84,73 -105,81zm-621 -918c105,-55 111,-74 252,-111 97,-26 206,-43 317,-37 12,44 9,978 3,1086 -96,-50 -241,-314 -316,-443 -52,-88 -244,-403 -256,-495zm-339 -357c63,345 181,253 -86,508 -62,59 -95,109 -120,133l-326 -97 -72 126 105 100c50,41 74,76 108,95 3,72 -42,189 -29,249l139 16 85 -240c207,34 658,396 982,508 435,152 897,115 1372,119l42 78 479 -74c4,-40 10,-99 -3,-132 -60,-46 -199,-31 -274,-74 -70,-40 -89,-141 -112,-236 -51,-211 -69,-163 2,-250 28,-34 139,-137 183,-157 -9,-52 -45,-91 -62,-138 -357,59 -239,185 -506,-88 -71,-73 -78,-62 -141,-107l98 -339c-48,-19 -83,-56 -129,-77 -56,29 -154,153 -185,224 -113,-4 -288,-47 -394,-75 -94,-26 -85,-34 -107,-130 -13,-56 -16,-156 -31,-197 -19,-25 -156,-16 -165,-8 -37,77 -42,264 -85,323 -38,24 -352,92 -420,107 -43,-43 -165,-196 -214,-231l-134 64z"/>
   <path class="fil2" d="M2581 5499c118,0 208,-12 332,1 613,65 1215,419 1851,579 359,91 847,170 1237,114 184,-27 383,-95 519,-176 102,-62 315,-223 344,-344 -163,47 -305,112 -483,155 -1208,294 -2294,-469 -3274,-434 -149,5 -413,45 -526,105z"/>
   <path class="fil0" d="M6108 6411c-20,3 -125,47 -160,59 -61,22 -117,39 -181,56 -1074,300 -1760,-385 -2677,-436 300,-188 1159,108 1466,196 423,121 912,212 1362,154 52,-6 148,-31 190,-29zm-3289 -217c121,0 229,-13 345,3 322,42 425,76 725,180 535,187 789,325 1445,325 202,0 520,-86 701,-153 121,-45 325,-135 419,-225 31,-31 86,-80 108,-113 -359,0 -577,253 -1505,91 -533,-93 -1125,-370 -1628,-370 -210,0 -373,13 -519,159 -35,35 -68,60 -91,103z"/>
   <path class="fil2" d="M6108 6411c-42,-2 -138,23 -190,29 -450,58 -939,-33 -1362,-154 -307,-88 -1166,-384 -1466,-196 917,51 1603,736 2677,436 64,-17 120,-34 181,-56 35,-12 140,-56 160,-59z"/>
   <path class="fil0" d="M4240 4475c125,-37 191,-78 350,-88l-2 699c-61,-79 -201,-334 -265,-446 -27,-47 -65,-111 -83,-165zm-124 -41c12,92 204,407 256,495 75,129 220,393 316,443 6,-108 9,-1042 -3,-1086 -111,-6 -220,11 -317,37 -141,37 -147,56 -252,111z"/>
   <path class="fil0" d="M5080 5205c15,-41 285,-495 322,-592 87,26 235,179 264,263l-291 166c-88,50 -203,125 -295,163zm-278 192c125,6 196,-27 284,-77 134,-77 652,-352 705,-412 -20,-90 -116,-209 -164,-259 -57,-59 -161,-143 -276,-155l-254 473c-43,71 -155,281 -204,337 -30,34 -64,59 -91,93z"/>
   <path class="fil0" d="M4836 4390c101,-10 281,43 351,88 -26,81 -309,575 -349,614l-2 -625 0 -77zm-99 962c21,-8 92,-64 105,-81 104,-132 455,-729 466,-838 -90,-48 -126,-81 -249,-114 -86,-22 -230,-46 -325,-28l3 1061z"/>
   <path class="fil0" d="M5189 5445c39,-57 574,-337 602,-347 57,67 86,240 86,345l-688 2zm779 97c11,-135 15,-198 -20,-326 -26,-96 -65,-186 -117,-245 -97,37 -161,74 -247,119 -81,42 -161,89 -238,135 -129,77 -382,198 -408,324l1030 -7z"/>
   <path class="fil0" d="M3767 4865c37,-88 165,-214 255,-252 6,6 335,574 348,607l-460 -261c-37,-20 -120,-65 -143,-94zm311 -378c-125,35 -199,85 -270,156 -47,47 -149,171 -169,258 67,42 97,74 208,139 76,43 149,80 224,123 128,73 306,204 464,238 -22,-129 -40,-164 -92,-263l-249 -429c-44,-75 -74,-148 -116,-222z"/>
   <path class="fil3" d="M4836 4467l2 625c40,-39 323,-533 349,-614 -70,-45 -250,-98 -351,-88l0 77z"/>
   <path class="fil3" d="M3767 4865c23,29 106,74 143,94l460 261c-13,-33 -342,-601 -348,-607 -90,38 -218,164 -255,252z"/>
   <path class="fil3" d="M5189 5445l688 -2c0,-105 -29,-278 -86,-345 -28,10 -563,290 -602,347z"/>
   <path class="fil3" d="M4240 4475c18,54 56,118 83,165 64,112 204,367 265,446l2 -699c-159,10 -225,51 -350,88z"/>
   <path class="fil3" d="M5080 5205c92,-38 207,-113 295,-163l291 -166c-29,-84 -177,-237 -264,-263 -37,97 -307,551 -322,592z"/>
  </g>
 </g>
</svg>
