<?xml version="1.0" encoding="UTF-8"?>
<!DOCTYPE svg PUBLIC "-//W3C//DTD SVG 1.1//EN" "http://www.w3.org/Graphics/SVG/1.1/DTD/svg11.dtd">
<!-- Creator: CorelDRAW X8 -->
<svg xmlns="http://www.w3.org/2000/svg" xml:space="preserve" width="105mm" height="148mm" version="1.1" style="shape-rendering:geometricPrecision; text-rendering:geometricPrecision; image-rendering:optimizeQuality; fill-rule:evenodd; clip-rule:evenodd"
viewBox="0 0 10500 14800"
 xmlns:xlink="http://www.w3.org/1999/xlink">
 <defs>
  <style type="text/css">
   <![CDATA[
    .fil2 {fill:black}
    .fil8 {fill:#030303}
    .fil0 {fill:#2A2928}
    .fil7 {fill:#626260}
    .fil6 {fill:#70706F}
    .fil1 {fill:#717170}
    .fil9 {fill:#969696}
    .fil3 {fill:#9C9D9D}
    .fil4 {fill:#C4C5C5}
    .fil5 {fill:#FEFEFE}
   ]]>
  </style>
 </defs>
 <g id="Vrstva_x0020_1">
  <metadata id="CorelCorpID_0Corel-Layer"/>
  <g id="_2379596487216">
   <path class="fil0" d="M1967 9592l-24 24 24 -24zm0 0l0 0zm94 -70l0 0zm0 0l0 0zm-922 -188c-22,70 -109,234 -158,278l-15 51c-11,66 -26,51 -79,72l-52 40 75 5c-11,139 -90,264 -94,423 123,-33 66,-85 188,-118 39,-74 51,-91 117,-122 62,-79 83,-119 204,-143 91,-19 206,-21 289,-65l118 -39c61,-42 135,-82 211,-100 -40,59 -167,152 -235,188l-94 76c-41,29 -75,61 -118,87 -43,27 -94,47 -140,72 23,30 43,46 71,70 248,3 533,-48 734,-132 31,-108 -47,-105 62,-198l895 -727c165,-139 481,-513 598,-692 95,-145 163,-254 251,-408 142,-251 334,-602 439,-868 974,110 3272,371 4236,-20 193,-78 260,-182 422,-274l-106 220c280,-162 72,-622 -259,-548 -222,50 -112,158 -355,210 -157,34 -375,39 -507,85 -217,198 -329,167 -705,158 -286,-7 -585,-34 -869,-20 -551,28 -1108,95 -1667,121l-33 -136c-396,-54 -263,-102 -413,-222l-25 23 54 117c-200,278 -40,284 -335,798 -381,663 -552,802 -959,1295 -91,111 -176,187 -271,292 -88,95 -197,215 -295,290 -25,-39 -49,-129 -63,-197 -39,-188 96,-213 300,-527 559,-859 677,-1430 968,-2412 24,0 69,3 88,1l116 -27c-72,-29 -75,38 -48,-53l47 -17 165 15 45 2 -75 -140c1020,44 891,78 1963,-16 320,-28 656,-51 978,-54 173,-1 345,-1 518,1 374,4 70,-89 422,-94 0,-149 -3,-219 -76,-302 -67,-76 -138,-99 -277,-99l-83 149c-421,48 -828,59 -1246,118 -361,51 -945,36 -1324,38 -89,57 -347,64 -479,84 -179,26 -343,57 -530,57 0,-90 -8,-97 -24,-165 -280,0 -229,-60 -346,-20l-101 41c-122,363 -33,1517 -781,2696 -471,743 -256,132 -656,752 -79,123 -268,211 -476,206 100,-246 285,-362 430,-980 323,-1381 -170,-3067 6,-4052 87,83 -27,27 262,58l933 103c828,85 2371,202 3163,-10 322,-86 282,-109 431,-237 0,-43 -13,-36 23,-36 0,-354 -217,-464 -402,-404 -63,20 -85,41 -148,66 -449,184 -1973,314 -2479,315 -338,1 -824,-76 -1234,10 -546,114 -575,-38 -719,-51 -150,-14 -192,92 -317,83 -110,-7 -260,-63 -383,-65l376 164c-54,230 26,1015 49,1289 114,1372 497,1991 -79,3330 -42,97 -60,158 -117,241z"/>
   <path class="fil1" d="M4502 7240c-105,122 -411,884 -908,1514 -246,311 -852,787 -1193,1062l-86 82c63,43 92,41 90,140 -56,49 -464,164 -568,174 449,114 1699,-164 2128,-289 657,-192 1202,-413 1793,-672 534,-235 1128,-574 1571,-871 270,-181 1139,-827 1310,-1160 -843,186 -1145,207 -2047,182 -356,-9 -708,-30 -1061,-58 -343,-27 -695,-84 -1029,-104z"/>
   <path class="fil2" d="M2409 8364c88,-983 328,-1425 354,-2788 430,90 160,24 425,140 -59,136 -91,85 -111,307 -11,131 -22,260 -39,387 -66,503 -225,1215 -457,1660l-131 249c-27,34 -15,21 -41,45zm-399 -406c0,-560 10,-1026 -32,-1590 -28,-378 -124,-1196 -73,-1534 344,359 437,989 407,1495 -15,255 -157,1255 -259,1541 -3,9 -21,49 -23,54l-20 34zm5340 -2747l-139 351c-632,79 -1439,143 -2075,140 -2274,-12 -1507,51 -1874,-334 64,-80 15,-69 66,-131l4022 -26zm-857 -557l-30 114c-103,37 -287,36 -397,30l427 -144zm-4033 1463c1,-411 -67,-745 -253,-1084 -58,-106 -120,-184 -171,-277 1344,236 2458,248 3828,190 1092,-47 566,37 893,71 128,14 142,-9 276,43l-4402 52 449 174c76,221 79,131 112,253 -124,-41 -159,-51 -306,-82 -93,-20 -171,-61 -261,-90 -13,1309 -199,1818 -360,2952 -81,571 -16,356 -411,667 117,-462 298,-861 399,-1338 104,-494 204,-1004 207,-1531zm4109 -1725c-149,128 -109,151 -431,237 -792,212 -2335,95 -3163,10l-933 -103c-289,-31 -175,25 -262,-58 -176,985 317,2671 -6,4052 -145,618 -330,734 -430,980 208,5 397,-83 476,-206 400,-620 185,-9 656,-752 748,-1179 659,-2333 781,-2696l101 -41c117,-40 66,20 346,20 172,1 345,1 517,1 205,0 335,23 516,23 379,-2 963,13 1324,-38 418,-59 825,-70 1246,-118l83 -149c24,-101 77,-243 118,-329l211 0c-29,-79 -17,-36 -100,-88 -178,-110 -144,-100 -384,-179 -420,-139 -291,-56 -472,-91 -71,-14 -51,-33 -147,-41 0,-179 125,-298 -24,-470l-23 36z"/>
   <path class="fil2" d="M4502 7240c334,20 686,77 1029,104 353,28 705,49 1061,58 902,25 1204,4 2047,-182 -171,333 -1040,979 -1310,1160 -443,297 -1037,636 -1571,871 -591,259 -1136,480 -1793,672 -429,125 -1679,403 -2128,289 104,-10 512,-125 568,-174 2,-99 -27,-97 -90,-140l86 -82c341,-275 947,-751 1193,-1062 497,-630 803,-1392 908,-1514zm-3075 2869c-110,9 -119,21 -141,117 55,83 100,84 224,105 484,82 1169,33 1629,-59 595,-120 1059,-237 1632,-458l510 -195c160,-64 343,-140 489,-214 288,-147 608,-276 921,-465 621,-377 660,-384 1260,-830 266,-198 510,-433 724,-685 85,-100 240,-303 283,-415l106 -220c-162,92 -229,196 -422,274 -964,391 -3262,130 -4236,20 -105,266 -297,617 -439,868 -88,154 -156,263 -251,408 -117,179 -433,553 -598,692l-895 727c-109,93 -31,90 -62,198 -201,84 -486,135 -734,132z"/>
   <path class="fil3" d="M4126 6280c26,72 184,358 238,399 143,107 1598,68 1829,70 395,3 867,49 1246,31 223,-11 286,-102 369,-268 66,-131 141,-280 191,-415 -381,-4 -255,-21 -445,66 -110,50 -356,24 -492,24 -1061,1 -1772,146 -2936,93z"/>
   <path class="fil4" d="M3328 5237c-51,62 -2,51 -66,131 367,385 -400,322 1874,334 636,3 1443,-61 2075,-140l139 -351 -4022 26z"/>
   <path class="fil5" d="M2460 6117c-3,527 -103,1037 -207,1531 -101,477 -282,876 -399,1338 395,-311 330,-96 411,-667 161,-1134 347,-1643 360,-2952 90,29 168,70 261,90 147,31 182,41 306,82 -33,-122 -36,-32 -112,-253l-449 -174 4402 -52c-134,-52 -148,-29 -276,-43 -327,-34 199,-118 -893,-71 -1370,58 -2484,46 -3828,-190 51,93 113,171 171,277 186,339 254,673 253,1084z"/>
   <path class="fil2" d="M4126 6280c1164,53 1875,-92 2936,-93 136,0 382,26 492,-24 190,-87 64,-70 445,-66 -50,135 -125,284 -191,415 -83,166 -146,257 -369,268 -379,18 -851,-28 -1246,-31 -231,-2 -1686,37 -1829,-70 -54,-41 -212,-327 -238,-399zm-189 -22c48,83 195,321 213,400 150,120 17,168 413,222l33 136c559,-26 1116,-93 1667,-121 284,-14 583,13 869,20 376,9 488,40 705,-158l305 -593c34,-76 55,-138 94,-211l-493 2c-352,5 -48,98 -422,94 -173,-2 -345,-2 -518,-1 -322,3 -658,26 -978,54 -1072,94 -943,60 -1963,16l75 140z"/>
   <path class="fil2" d="M3829 6436c43,116 195,269 156,383 -50,147 -67,293 -128,438 -272,655 -773,1174 -1190,1674 -88,106 -190,176 -271,276 46,-81 276,-365 406,-587 362,-616 682,-1431 826,-2149l201 -35zm-101 -125l-116 27c-19,2 -64,-1 -88,-1 -291,982 -409,1553 -968,2412 -204,314 -339,339 -300,527 14,68 38,158 63,197 98,-75 207,-195 295,-290 95,-105 180,-181 271,-292 407,-493 578,-632 959,-1295 295,-514 135,-520 335,-798l-54 -117c-67,-140 -159,-276 -233,-425l-165 -15 22 41c-22,35 41,18 -21,29z"/>
   <path class="fil3" d="M3628 6471c-144,718 -464,1533 -826,2149 -130,222 -360,506 -406,587 81,-100 183,-170 271,-276 417,-500 918,-1019 1190,-1674 61,-145 78,-291 128,-438 39,-114 -113,-267 -156,-383l-201 35z"/>
   <path class="fil4" d="M2409 8364c26,-24 14,-11 41,-45l131 -249c232,-445 391,-1157 457,-1660 17,-127 28,-256 39,-387 20,-222 52,-171 111,-307 -265,-116 5,-50 -425,-140 -26,1363 -266,1805 -354,2788z"/>
   <path class="fil6" d="M2010 7958l20 -34c2,-5 20,-45 23,-54 102,-286 244,-1286 259,-1541 30,-506 -63,-1136 -407,-1495 -51,338 45,1156 73,1534 42,564 32,1030 32,1590z"/>
   <path class="fil7" d="M6066 4798c110,6 294,7 397,-30l30 -114 -427 144z"/>
   <path class="fil2" d="M981 9612c49,-44 136,-208 158,-278 -54,-31 -2,-16 -88,-23 -63,93 -70,146 -70,301z"/>
   <path class="fil2" d="M1004 10085c44,64 64,161 70,235l47 -357c-66,31 -78,48 -117,122z"/>
   <path class="fil2" d="M1614 9755l0 125 94 -76c8,-86 -7,-35 24,-88l-118 39z"/>
   <path class="fil8" d="M887 9735c53,-21 68,-6 79,-72l-79 0 0 72z"/>
   <path class="fil9" d="M3728 6311c62,-11 -1,6 21,-29l-22 -41 -47 17c-27,91 -24,24 48,53z"/>
  </g>
 </g>
</svg>
