<?xml version="1.0" encoding="UTF-8"?>
<!DOCTYPE svg PUBLIC "-//W3C//DTD SVG 1.1//EN" "http://www.w3.org/Graphics/SVG/1.1/DTD/svg11.dtd">
<!-- Creator: CorelDRAW X8 -->
<svg xmlns="http://www.w3.org/2000/svg" xml:space="preserve" width="105mm" height="148mm" version="1.1" style="shape-rendering:geometricPrecision; text-rendering:geometricPrecision; image-rendering:optimizeQuality; fill-rule:evenodd; clip-rule:evenodd"
viewBox="0 0 10500 14800"
 xmlns:xlink="http://www.w3.org/1999/xlink">
 <defs>
  <style type="text/css">
   <![CDATA[
    .fil1 {fill:black}
    .fil3 {fill:#2B2A28}
    .fil2 {fill:#85745C}
    .fil0 {fill:#EE7E19}
   ]]>
  </style>
 </defs>
 <g id="Vrstva_x0020_1">
  <metadata id="CorelCorpID_0Corel-Layer"/>
  <g id="_2379597927024">
   <path class="fil0" d="M4486 8000c50,-22 380,-58 449,-58 148,-2 306,28 428,65 509,150 822,465 1089,906 100,166 240,508 252,745l-426 1c-30,-118 -48,-242 -81,-358 -94,-334 -247,-589 -481,-809 -433,-409 -980,-367 -1230,-492zm2066 307c-100,26 -302,123 -395,49 -94,-74 -18,-279 -3,-398 -93,16 -221,178 -363,140 -129,-35 -90,-266 -111,-393 -88,47 -197,247 -330,224 -126,-22 -145,-237 -193,-354 -74,100 -140,286 -262,294 -153,10 -192,-211 -279,-284 -68,114 -56,337 -214,342 -147,5 -226,-191 -311,-217 -14,131 16,356 -118,388 -124,30 -255,-105 -357,-144 13,130 93,325 -8,404 -95,75 -285,-27 -389,-51 23,110 143,253 98,371 -48,126 -268,70 -403,71 36,92 211,210 181,346 -29,134 -256,113 -375,156l118 98c285,219 92,276 -6,359l1320 -5c36,-70 48,-178 89,-259 213,-416 816,-528 1146,-184 198,206 152,222 230,448l1324 -1c-71,-49 -220,-112 -128,-245 60,-87 166,-139 233,-203 -84,-63 -350,-16 -372,-173 -19,-135 116,-205 185,-341 -118,-2 -357,64 -406,-61 -51,-131 84,-272 99,-377z"/>
   <path class="fil1" d="M7434 10337l-5106 2 -3 -324c410,-26 867,-6 1280,-4 403,2 3754,-16 3837,12 5,78 21,250 -8,314zm174 -266l0 242c-8,98 -42,162 -157,185 -31,6 -86,10 -155,11l-289 0c-244,-3 -513,-13 -622,-13l-3658 0c-297,0 -558,58 -558,-173 0,-440 -65,-478 412,-478 -26,-39 -49,-46 -48,-107 1,-35 21,-78 53,-101 21,-16 195,-92 221,-98 -21,-32 -125,-110 -165,-141 -313,-240 64,-333 285,-351 -42,-79 -200,-232 -200,-320 0,-191 285,-133 426,-133 -8,-89 -106,-194 -106,-319 0,-260 366,-60 452,-53 -7,-81 -123,-439 66,-439 186,0 225,118 346,146 4,-52 14,-62 13,-132 0,-205 84,-369 249,-236 23,18 56,43 72,61 26,28 37,48 68,78 37,37 31,33 77,56l64 -214c24,-67 50,-145 135,-145 194,0 195,219 306,293 29,-43 262,-552 420,-154 30,75 41,154 72,220 70,-46 365,-451 450,-90 20,88 16,159 16,263 115,-9 162,-146 345,-146 217,0 72,429 67,439 108,-9 189,-80 319,-80 281,0 59,348 38,414 -19,60 -6,45 68,40 65,-5 89,-16 147,-16 81,0 199,39 199,107 0,173 -118,238 -199,360 791,65 170,436 133,492 54,28 106,44 168,71 179,80 66,203 45,235 243,0 425,-27 425,226zm-2766 -852c201,0 374,59 485,207 177,238 68,309 193,419l-1277 0c75,-65 67,-101 96,-211 63,-235 287,-415 503,-415zm1710 -912c-15,105 -150,246 -99,377 49,125 288,59 406,61 -69,136 -204,206 -185,341 22,157 288,110 372,173 -67,64 -173,116 -233,203 -92,133 57,196 128,245l-1324 1c-78,-226 -32,-242 -230,-448 -330,-344 -933,-232 -1146,184 -41,81 -53,189 -89,259l-1320 5c98,-83 291,-140 6,-359l-118 -98c119,-43 346,-22 375,-156 30,-136 -145,-254 -181,-346 135,-1 355,55 403,-71 45,-118 -75,-261 -98,-371 104,24 294,126 389,51 101,-79 21,-274 8,-404 102,39 233,174 357,144 134,-32 104,-257 118,-388 85,26 164,222 311,217 158,-5 146,-228 214,-342 87,73 126,294 279,284 122,-8 188,-194 262,-294 48,117 67,332 193,354 133,23 242,-177 330,-224 21,127 -18,358 111,393 142,38 270,-124 363,-140 -15,119 -91,324 3,398 93,74 295,-23 395,-49z"/>
   <path class="fil2" d="M7434 10337c29,-64 13,-236 8,-314 -83,-28 -3434,-10 -3837,-12 -413,-2 -870,-22 -1280,4l3 324 5106 -2z"/>
   <path class="fil3" d="M6411 9496c-19,-38 -38,-167 -54,-222 -84,-285 -135,-328 -237,-559 132,137 348,533 397,785l-106 -4zm-1925 -1496c250,125 797,83 1230,492 234,220 387,475 481,809 33,116 51,240 81,358l426 -1c-12,-237 -152,-579 -252,-745 -267,-441 -580,-756 -1089,-906 -122,-37 -280,-67 -428,-65 -69,0 -399,36 -449,58z"/>
   <path class="fil0" d="M6411 9496l106 4c-49,-252 -265,-648 -397,-785 102,231 153,274 237,559 16,55 35,184 54,222z"/>
  </g>
 </g>
</svg>
