<?xml version="1.0" encoding="UTF-8"?>
<!DOCTYPE svg PUBLIC "-//W3C//DTD SVG 1.1//EN" "http://www.w3.org/Graphics/SVG/1.1/DTD/svg11.dtd">
<!-- Creator: CorelDRAW X8 -->
<svg xmlns="http://www.w3.org/2000/svg" xml:space="preserve" width="105mm" height="148mm" version="1.1" style="shape-rendering:geometricPrecision; text-rendering:geometricPrecision; image-rendering:optimizeQuality; fill-rule:evenodd; clip-rule:evenodd"
viewBox="0 0 10500 14800"
 xmlns:xlink="http://www.w3.org/1999/xlink">
 <defs>
  <style type="text/css">
   <![CDATA[
    .fil1 {fill:black}
    .fil0 {fill:#A1D8F6}
   ]]>
  </style>
 </defs>
 <g id="Vrstva_x0020_1">
  <metadata id="CorelCorpID_0Corel-Layer"/>
  <g id="_2379593733808">
   <path class="fil0" d="M5794 7383c329,-288 662,-459 879,-895 154,-309 247,-959 375,-1410l-543 35c65,459 215,993 -380,1013 172,-450 205,-364 337,-1011 -688,10 -1360,33 -2054,16 -406,-11 -1648,-25 -1970,-60 -326,1420 687,3235 2328,3232 1791,-4 2661,-2100 2331,-3232 -62,163 282,1447 -693,2135 -366,257 -405,282 -610,177z"/>
   <path class="fil1" d="M5794 7383c205,105 244,80 610,-177 975,-688 631,-1972 693,-2135 330,1132 -540,3228 -2331,3232 -1641,3 -2654,-1812 -2328,-3232 322,35 1564,49 1970,60 694,17 1366,-6 2054,-16 -132,647 -165,561 -337,1011 595,-20 445,-554 380,-1013l543 -35c-128,451 -221,1101 -375,1410 -217,436 -550,607 -879,895zm-3733 -1730c0,2490 1976,2903 2276,3276 106,131 147,433 147,669l0 2170c0,230 -38,454 -152,580 -43,48 -155,123 -226,141 -505,131 -705,-104 -1566,97l-28 366c160,4 234,56 422,56 654,0 1233,-56 1860,-56 554,0 1152,56 1804,56 180,0 247,-44 395,-56 0,-171 28,-206 28,-366 -685,-160 -490,-57 -1070,-56 -1091,3 -888,-376 -902,-1467 -2,-176 -29,-224 -29,-563 0,-269 -9,-1196 54,-1383 77,-228 679,-561 915,-719 570,-381 876,-640 1192,-1317 201,-434 291,-907 291,-1485 0,-230 -57,-367 -57,-563 78,-18 64,-14 113,-57 -111,-9 -112,-18 -151,-102 -113,-247 -151,-630 -469,-715 5,215 124,470 141,676l-4566 0 141 -704c-262,139 -355,313 -439,603 -72,248 -124,615 -124,919z"/>
  </g>
 </g>
</svg>
