<?xml version="1.0" encoding="UTF-8"?>
<!DOCTYPE svg PUBLIC "-//W3C//DTD SVG 1.1//EN" "http://www.w3.org/Graphics/SVG/1.1/DTD/svg11.dtd">
<!-- Creator: CorelDRAW X8 -->
<svg xmlns="http://www.w3.org/2000/svg" xml:space="preserve" width="105mm" height="148mm" version="1.1" style="shape-rendering:geometricPrecision; text-rendering:geometricPrecision; image-rendering:optimizeQuality; fill-rule:evenodd; clip-rule:evenodd"
viewBox="0 0 10500 14800"
 xmlns:xlink="http://www.w3.org/1999/xlink">
 <defs>
  <style type="text/css">
   <![CDATA[
    .fil1 {fill:black}
    .fil2 {fill:#1D8002}
    .fil0 {fill:#6000FE}
    .fil4 {fill:#682F00}
    .fil5 {fill:#893CFC}
    .fil3 {fill:#D6C1F5}
   ]]>
  </style>
 </defs>
 <g id="Vrstva_x0020_1">
  <metadata id="CorelCorpID_0Corel-Layer"/>
  <g id="_2379678550608">
   <path class="fil0" d="M4060 9139c242,-7 565,304 712,425 70,58 111,80 171,144 183,195 338,285 318,507 -480,217 -1466,-671 -1201,-1076zm1560 1848l14 -262c-103,-102 -305,-187 -247,-376 145,-193 397,52 536,121l-17 -551c203,845 397,812 178,1213 548,304 2887,189 2639,-1544 -224,-1569 -2501,-2861 -4143,-2307 -1262,426 -1267,1742 -326,2803 218,245 911,792 1366,903z"/>
   <path class="fil1" d="M5939 10839c83,40 31,2 59,74 -86,134 -197,83 -186,-87 44,0 93,-3 127,13zm3494 -1763l0 96c-8,324 -104,650 -308,964 -77,119 -113,274 -174,421 -346,831 -1332,1076 -2178,1076 -1895,0 -4297,-2083 -3380,-3818 -141,-3 -124,-31 -281,-31 -817,0 -661,344 -1002,344 -515,0 -784,-770 344,-1032 -71,-107 -70,-42 -229,-241 -383,-476 -396,-696 -396,-1293 0,-487 278,-1052 479,-1460 88,-178 116,-251 272,-355 188,127 268,227 411,402 561,688 1064,1624 595,2513 -179,339 -184,265 -318,465 57,27 335,119 407,125 72,-311 498,-687 771,-825 1982,-1001 4934,771 4987,2649zm-3813 1911c-455,-111 -1148,-658 -1366,-903 -941,-1061 -936,-2377 326,-2803 1642,-554 3919,738 4143,2307 248,1733 -2091,1848 -2639,1544 219,-401 25,-368 -178,-1213l17 551c-139,-69 -391,-314 -536,-121 -58,189 144,274 247,376l-14 262zm-3576 -3226c26,-189 278,-273 474,-287 -73,43 -165,84 -240,135 -127,84 -80,120 -234,152zm2259 -760c307,-344 914,-510 1532,-488 1504,54 3354,1337 3210,2800 -262,-609 -188,-615 -671,-1189 -242,-289 -640,-604 -1053,-826 -408,-220 -874,-407 -1401,-479 -775,-106 -1009,36 -1617,182zm-1587 -205c-1044,-678 -239,-2350 -67,-2488 234,367 471,571 657,1092 169,476 67,1048 -219,1347l-203 -1403c-24,-195 -17,-284 -211,-278 -138,167 -46,571 -24,832 25,301 53,598 67,898z"/>
   <path class="fil0" d="M4303 7001c608,-146 842,-288 1617,-182 527,72 993,259 1401,479 413,222 811,537 1053,826 483,574 409,580 671,1189 144,-1463 -1706,-2746 -3210,-2800 -618,-22 -1225,144 -1532,488z"/>
   <path class="fil2" d="M2716 6796c-14,-300 -42,-597 -67,-898 -22,-261 -114,-665 24,-832 194,-6 187,83 211,278l203 1403c286,-299 388,-871 219,-1347 -186,-521 -423,-725 -657,-1092 -172,138 -977,1810 67,2488z"/>
   <path class="fil1" d="M5012 10061c-140,-19 -380,-192 -448,-257 -114,-108 -270,-248 -336,-404 226,99 667,507 784,661zm249 154c20,-222 -135,-312 -318,-507 -60,-64 -101,-86 -171,-144 -147,-121 -470,-432 -712,-425 -265,405 721,1293 1201,1076z"/>
   <path class="fil3" d="M5012 10061c-117,-154 -558,-562 -784,-661 66,156 222,296 336,404 68,65 308,238 448,257z"/>
   <path class="fil4" d="M2044 7761c154,-32 107,-68 234,-152 75,-51 167,-92 240,-135 -196,14 -448,98 -474,287z"/>
   <path class="fil5" d="M5998 10913c-28,-72 24,-34 -59,-74 -34,-16 -83,-13 -127,-13 -11,170 100,221 186,87z"/>
  </g>
 </g>
</svg>
