<?xml version="1.0" encoding="UTF-8"?>
<!DOCTYPE svg PUBLIC "-//W3C//DTD SVG 1.1//EN" "http://www.w3.org/Graphics/SVG/1.1/DTD/svg11.dtd">
<!-- Creator: CorelDRAW X8 -->
<svg xmlns="http://www.w3.org/2000/svg" xml:space="preserve" width="105mm" height="148mm" version="1.1" style="shape-rendering:geometricPrecision; text-rendering:geometricPrecision; image-rendering:optimizeQuality; fill-rule:evenodd; clip-rule:evenodd"
viewBox="0 0 10500 14800"
 xmlns:xlink="http://www.w3.org/1999/xlink">
 <defs>
  <style type="text/css">
   <![CDATA[
    .fil0 {fill:black}
   ]]>
  </style>
 </defs>
 <g id="Vrstva_x0020_1">
  <metadata id="CorelCorpID_0Corel-Layer"/>
  <path class="fil0" d="M6451 10041c-113,-485 209,-777 750,-777 -27,98 -93,134 -160,201 -141,139 -482,504 -590,576zm2665 -3249l0 79c-6,85 -28,180 -28,394 -46,-31 -1531,-1585 -1686,-1686l-1985 1998 1117 1132c666,-320 1531,104 1645,562l-1756 1741c-367,-194 -99,-60 -382,-311 -85,-74 -56,-19 -106,-116 -203,-393 -246,-860 -46,-1259l-1131 -1117c-112,167 -1238,1260 -1533,1520l-910 923c-46,-31 -612,-572 -645,-618l2456 -2470 -1422 -1409c-81,121 -205,218 -312,326 -119,119 -171,211 -382,229 -154,-291 -339,-405 -534,-576l-307 -332c-76,-92 -172,-136 -224,-220 -148,-237 -295,-691 -295,-982 0,-548 52,-900 523,-1087 50,-20 276,-106 337,-106 438,0 646,-19 1065,184 264,128 733,613 938,838l440 421c-162,307 -420,423 -590,673l1402 1416 1992 -2006c-82,-121 -306,-319 -424,-437l-860 -860c-220,-220 -217,-184 -299,-535 392,9 694,213 935,288 126,38 59,3 156,65 625,401 683,335 1427,960 312,263 822,977 1040,1375 48,88 109,224 150,322 172,414 225,567 234,681z"/>
 </g>
</svg>
