<?xml version="1.0" encoding="UTF-8"?>
<!DOCTYPE svg PUBLIC "-//W3C//DTD SVG 1.1//EN" "http://www.w3.org/Graphics/SVG/1.1/DTD/svg11.dtd">
<!-- Creator: CorelDRAW X8 -->
<svg xmlns="http://www.w3.org/2000/svg" xml:space="preserve" width="105mm" height="148mm" version="1.1" style="shape-rendering:geometricPrecision; text-rendering:geometricPrecision; image-rendering:optimizeQuality; fill-rule:evenodd; clip-rule:evenodd"
viewBox="0 0 10500 14800"
 xmlns:xlink="http://www.w3.org/1999/xlink">
 <defs>
  <style type="text/css">
   <![CDATA[
    .fil0 {fill:black}
    .fil3 {fill:#282726}
    .fil2 {fill:#292827}
    .fil4 {fill:#2A2928}
    .fil5 {fill:#2C2A28}
    .fil6 {fill:#B4A80E}
    .fil1 {fill:#FEEC00}
   ]]>
  </style>
 </defs>
 <g id="Vrstva_x0020_1">
  <metadata id="CorelCorpID_0Corel-Layer"/>
  <g id="_2379596486672">
   <path class="fil0" d="M6846 10630c30,-30 107,44 32,14 -1,0 -79,33 -32,-14zm3154 -284l0 147c-21,365 -204,738 -532,928 -630,363 -2368,-77 -2368,279 0,257 388,140 591,140 71,0 185,41 254,57 0,133 -5,126 -28,225 -65,15 -126,24 -186,28l-450 0 -12 0c-442,0 -602,-485 -333,-755 210,-211 804,-118 1178,-118 715,0 1335,119 1546,-565 125,-404 -36,-871 -364,-871 -237,0 -248,1 -483,193 -438,358 -311,330 -934,643 -450,227 -1096,319 -1765,319 -808,0 -1353,22 -2108,-285 -592,-242 -855,-492 -1264,-905 -77,-78 -119,-143 -188,-234 -491,-651 -663,-1374 -663,-2237 0,-832 459,-1785 1048,-2330l478 -367c1356,-906 3214,-756 4310,353 410,415 442,487 719,942 323,530 372,1066 372,1684 0,728 -366,1698 -867,2203 -247,249 -301,337 -642,568 -109,74 -284,151 -350,242 396,0 982,-291 1234,-456 162,-105 323,-250 462,-382 393,-372 905,-296 1153,16 117,146 180,337 192,538zm-4920 383c5,-162 602,-648 767,-791 160,-139 709,-662 859,-725 111,66 637,638 691,791 -170,167 -663,445 -962,552 -449,161 -857,189 -1355,173zm-965 -857c-672,0 -993,100 -1193,-256 222,-505 793,-407 1306,-406l846 0c-51,192 -253,316 -382,420 -230,184 -128,242 -577,242zm15 631c53,-183 119,-188 222,-285 309,-287 876,-762 1140,-1027 82,-83 598,-540 679,-573 111,63 311,267 351,435 -81,108 -632,565 -798,735 -98,99 -162,131 -282,253 -156,159 -414,335 -556,487 -229,243 -313,104 -756,-25zm943 -1499l-1442 3c55,-174 254,-307 371,-406 204,-171 133,-260 507,-259 363,1 1194,-72 1467,30 10,190 -172,274 -343,425 -200,177 -186,208 -560,207zm168 -1447c6,4 14,4 17,13 2,10 12,11 15,14 170,175 355,317 419,545l-1084 0c52,-192 177,-229 287,-325 144,-125 95,-186 346,-247zm162 -222c483,-518 452,-325 838,100l1410 1574c99,117 238,221 303,382 -74,161 -239,365 -375,417 -187,-116 -407,-400 -567,-584l-808 -909c-93,-114 -182,-198 -276,-316 -52,-66 -78,-80 -137,-143 -140,-148 -317,-339 -388,-521zm-2668 2060c-96,-93 -237,-339 -257,-511 36,-48 196,-198 259,-251 100,-82 166,-151 268,-239 352,-306 1485,-1378 1683,-1449 126,104 319,252 356,453l-846 753c-107,106 -169,156 -280,253 -187,161 -372,339 -564,509 -125,112 -441,449 -619,482zm2124 -2623c89,-115 285,-326 439,-378 58,50 39,40 88,95l261 311c-89,146 -266,307 -434,384 -193,-173 -280,-330 -354,-412zm-2484 1880c-116,-156 -181,-396 -189,-641l113 -100c60,-54 64,-59 121,-103l1427 -1276c284,-260 302,-242 470,-18 78,103 115,90 175,230 -54,92 -403,430 -492,504l-942 833c-126,117 -568,524 -683,571zm1942 -2507c238,-296 186,-171 376,-359 161,45 156,86 242,195l185 230 -413 372c-138,-55 -343,-275 -390,-438zm-2163 1546c-90,-725 102,-719 427,-1018 141,-130 964,-877 1055,-880 114,43 269,213 311,360l-1318 1189c-165,129 -234,272 -475,349zm123 -1103c78,-448 544,-1149 825,-1371 127,47 330,258 368,401 -100,97 -176,169 -283,255 -160,130 -324,310 -571,498 -113,85 -175,174 -339,217zm1866 -619c-111,-68 -287,-221 -306,-380l419 -341c119,61 263,208 304,375l-417 346zm-817 -915c80,-155 283,-277 479,-327 97,61 229,212 268,356l-408 342c-106,-54 -290,-249 -339,-371zm4350 3676c-52,-58 -73,-70 -121,-132 -83,-108 -166,-178 -250,-286 -83,-106 -168,-173 -253,-281 -84,-106 -169,-174 -254,-282 -220,-280 -1298,-1438 -1669,-1850l-619 -705c-65,-65 -73,-85 -129,-153 -91,-112 -289,-285 -351,-437 93,-84 277,-157 435,-190 249,-52 386,281 636,528l3085 3448c257,273 209,290 -58,759 -181,-50 -355,-310 -452,-419zm-1652 -4323c217,-98 820,240 968,333 294,185 536,373 732,593 353,396 832,1085 821,1859 -161,-39 -292,-218 -369,-313 -65,-80 -90,-97 -164,-173 -56,-58 -85,-111 -139,-173 -328,-385 -1746,-1925 -1849,-2126zm1935 3421c-140,-138 -289,-351 -437,-492l-2311 -2590c-65,-74 -256,-252 -303,-367 185,-136 667,-141 814,26l1162 1316c78,100 148,157 226,253 43,53 69,91 116,138l811 905c152,187 332,306 465,522 124,200 43,645 -70,785 -122,-38 -154,-147 -249,-242 -87,-87 -119,-152 -224,-254z"/>
   <path class="fil1" d="M4115 4605c85,168 444,538 590,704l862 969c314,305 1190,1376 1505,1676 113,108 878,1051 1013,1104 95,-105 179,-270 220,-429 -72,-87 -145,-178 -218,-254 -56,-59 -67,-79 -117,-137 -45,-53 -79,-77 -123,-129l-688 -776c-80,-96 -162,-172 -240,-267 -81,-100 -141,-154 -226,-252l-2093 -2350c-177,16 -337,81 -485,141z"/>
   <path class="fil1" d="M5013 4407c24,53 157,204 201,254l3205 3569c234,-695 -89,-752 -473,-1205 -79,-94 -119,-140 -210,-240 -43,-46 -60,-79 -101,-126l-1013 -1126c-232,-237 -656,-769 -886,-1001 -81,-82 -118,-171 -296,-180 -129,-6 -340,-12 -427,55z"/>
   <path class="fil1" d="M5487 7330c40,190 583,738 769,933 95,100 161,181 267,296 200,216 891,1097 1093,1172 98,-112 202,-203 261,-340 -90,-186 -565,-636 -753,-869l-518 -580c-51,-55 -75,-100 -126,-156 -53,-59 -88,-83 -138,-143 -113,-137 -414,-479 -537,-557l-318 244z"/>
   <path class="fil1" d="M2764 9307c252,-120 1090,-968 1402,-1217l788 -727c-38,-148 -174,-227 -265,-335 -221,86 -609,511 -827,701 -183,159 -1184,1076 -1307,1144 12,164 119,347 209,434z"/>
   <path class="fil1" d="M6155 4473c54,49 78,98 130,158l1883 2144c101,101 224,260 306,306 -34,-644 -475,-1369 -785,-1687 -304,-313 -1101,-942 -1534,-921z"/>
   <path class="fil1" d="M5188 10661c679,58 1545,-201 2056,-620 41,-34 34,-28 62,-59 -69,-112 -198,-270 -276,-353 -110,-117 -218,-240 -324,-329 -161,65 -1446,1239 -1518,1361z"/>
   <path class="fil1" d="M2398 8553c217,-135 802,-704 1035,-887l979 -922c-45,-109 -45,-91 -127,-170 -71,-68 -78,-97 -148,-159 -194,41 -937,797 -1177,1003 -93,80 -120,97 -223,200l-474 401c-16,177 40,418 135,534z"/>
   <path class="fil1" d="M4217 10471c383,100 422,222 689,-37 202,-196 1438,-1280 1538,-1409 -53,-119 -181,-245 -273,-328 -132,55 -148,125 -252,216 -221,191 -1634,1404 -1702,1558z"/>
   <path class="fil1" d="M5073 8938c446,1 293,-52 699,-341 87,-62 129,-68 138,-183 -319,-68 -982,-5 -1345,-6 -351,0 -286,29 -478,195 -121,105 -247,197 -343,335l1329 0z"/>
   <path class="fil1" d="M3000 9612c146,190 167,194 467,193 226,-2 452,2 677,0 423,-4 330,-88 659,-346 52,-41 37,-26 87,-81 55,-59 39,-30 79,-100 -244,0 -1505,-50 -1675,51 -103,62 -235,204 -294,283z"/>
   <path class="fil1" d="M2212 7585c129,-19 1440,-1265 1660,-1419 -36,-136 -148,-240 -236,-293 -115,50 -329,256 -436,349l-844 734c-196,200 -153,292 -144,629z"/>
   <path class="fil2" d="M7970 8238c50,58 61,78 117,137 73,76 146,167 218,254 -41,159 -125,324 -220,429 -135,-53 -900,-996 -1013,-1104 -315,-300 -1191,-1371 -1505,-1676l-862 -969c-146,-166 -505,-536 -590,-704 148,-60 308,-125 485,-141l2093 2350c85,98 145,152 226,252 78,95 160,171 240,267l688 776c44,52 78,76 123,129zm-3940 -3634c62,152 260,325 351,437 56,68 64,88 129,153l619 705c371,412 1449,1570 1669,1850 85,108 170,176 254,282 85,108 170,175 253,281 84,108 167,178 250,286 48,62 69,74 121,132 97,109 271,369 452,419 267,-469 315,-486 58,-759l-3085 -3448c-250,-247 -387,-580 -636,-528 -158,33 -342,106 -435,190z"/>
   <path class="fil2" d="M8419 8230l-3205 -3569c-44,-50 -177,-201 -201,-254 87,-67 298,-61 427,-55 178,9 215,98 296,180 230,232 654,764 886,1001l1013 1126c41,47 58,80 101,126 91,100 131,146 210,240 384,453 707,510 473,1205zm-3511 -3851c47,115 238,293 303,367l2311 2590c148,141 297,354 437,492 105,102 137,167 224,254 95,95 127,204 249,242 113,-140 194,-585 70,-785 -133,-216 -313,-335 -465,-522l-811 -905c-47,-47 -73,-85 -116,-138 -78,-96 -148,-153 -226,-253l-1162 -1316c-147,-167 -629,-162 -814,-26z"/>
   <path class="fil3" d="M6155 4473c433,-21 1230,608 1534,921 310,318 751,1043 785,1687 -82,-46 -205,-205 -306,-306l-1883 -2144c-52,-60 -76,-109 -130,-158zm-131 -66c103,201 1521,1741 1849,2126 54,62 83,115 139,173 74,76 99,93 164,173 77,95 208,274 369,313 11,-774 -468,-1463 -821,-1859 -196,-220 -438,-408 -732,-593 -148,-93 -751,-431 -968,-333z"/>
   <path class="fil4" d="M2764 9307c-90,-87 -197,-270 -209,-434 123,-68 1124,-985 1307,-1144 218,-190 606,-615 827,-701 91,108 227,187 265,335l-788 727c-312,249 -1150,1097 -1402,1217zm-29 88c178,-33 494,-370 619,-482 192,-170 377,-348 564,-509 111,-97 173,-147 280,-253l846 -753c-37,-201 -230,-349 -356,-453 -198,71 -1331,1143 -1683,1449 -102,88 -168,157 -268,239 -63,53 -223,203 -259,251 20,172 161,418 257,511z"/>
   <path class="fil2" d="M6342 7643c50,60 85,84 138,143 51,56 75,101 126,156l518 580c188,233 663,683 753,869 -59,137 -163,228 -261,340 -202,-75 -893,-956 -1093,-1172 -106,-115 -172,-196 -267,-296 -186,-195 -729,-743 -769,-933l318 -244c123,78 424,420 537,557zm-939 -308c71,182 248,373 388,521 59,63 85,77 137,143 94,118 183,202 276,316l808 909c160,184 380,468 567,584 136,-52 301,-256 375,-417 -65,-161 -204,-265 -303,-382l-1410 -1574c-386,-425 -355,-618 -838,-100z"/>
   <path class="fil2" d="M2398 8553c-95,-116 -151,-357 -135,-534l474 -401c103,-103 130,-120 223,-200 240,-206 983,-962 1177,-1003 70,62 77,91 148,159 82,79 82,61 127,170l-979 922c-233,183 -818,752 -1035,887zm-23 99c115,-47 557,-454 683,-571l942 -833c89,-74 438,-412 492,-504 -60,-140 -97,-127 -175,-230 -168,-224 -186,-242 -470,18l-1427 1276c-57,44 -61,49 -121,103l-113 100c8,245 73,485 189,641z"/>
   <path class="fil2" d="M4217 10471c68,-154 1481,-1367 1702,-1558 104,-91 120,-161 252,-216 92,83 220,209 273,328 -100,129 -1336,1213 -1538,1409 -267,259 -306,137 -689,37zm-87 32c443,129 527,268 756,25 142,-152 400,-328 556,-487 120,-122 184,-154 282,-253 166,-170 717,-627 798,-735 -40,-168 -240,-372 -351,-435 -81,33 -597,490 -679,573 -264,265 -831,740 -1140,1027 -103,97 -169,102 -222,285z"/>
   <path class="fil3" d="M5188 10661c72,-122 1357,-1296 1518,-1361 106,89 214,212 324,329 78,83 207,241 276,353 -28,31 -21,25 -62,59 -511,419 -1377,678 -2056,620zm-108 68c498,16 906,-12 1355,-173 299,-107 792,-385 962,-552 -54,-153 -580,-725 -691,-791 -150,63 -699,586 -859,725 -165,143 -762,629 -767,791z"/>
   <path class="fil1" d="M2405 6412l14 11 487 -382c103,-96 162,-134 239,-211 91,-91 150,-146 248,-202 -37,-165 -151,-254 -263,-326 -122,61 -324,361 -415,492 -88,127 -294,444 -310,618z"/>
   <path class="fil2" d="M2212 7585c-9,-337 -52,-429 144,-629l844 -734c107,-93 321,-299 436,-349 88,53 200,157 236,293 -220,154 -1531,1400 -1660,1419zm-58 106c241,-77 310,-220 475,-349l1318 -1189c-42,-147 -197,-317 -311,-360 -91,3 -914,750 -1055,880 -325,299 -517,293 -427,1018z"/>
   <path class="fil5" d="M5073 8938l-1329 0c96,-138 222,-230 343,-335 192,-166 127,-195 478,-195 363,1 1026,-62 1345,6 -9,115 -51,121 -138,183 -406,289 -253,342 -699,341zm0 66c374,1 360,-30 560,-207 171,-151 353,-235 343,-425 -273,-102 -1104,-29 -1467,-30 -374,-1 -303,88 -507,259 -117,99 -316,232 -371,406l1442 -3z"/>
   <path class="fil2" d="M3000 9612c59,-79 191,-221 294,-283 170,-101 1431,-51 1675,-51 -40,70 -24,41 -79,100 -50,55 -35,40 -87,81 -329,258 -236,342 -659,346 -225,2 -451,-2 -677,0 -300,1 -321,-3 -467,-193zm1115 260c449,0 347,-58 577,-242 129,-104 331,-228 382,-420l-846 0c-513,-1 -1084,-99 -1306,406 200,356 521,256 1193,256z"/>
   <path class="fil2" d="M2419 6423l-58 50 44 -61c16,-174 222,-491 310,-618 91,-131 293,-431 415,-492 112,72 226,161 263,326 -98,56 -157,111 -248,202 -77,77 -136,115 -239,211l-487 382zm-142 165c164,-43 226,-132 339,-217 247,-188 411,-368 571,-498 107,-86 183,-158 283,-255 -38,-143 -241,-354 -368,-401 -281,222 -747,923 -825,1371z"/>
   <path class="fil1" d="M4400 6153c40,132 187,262 278,342 102,-34 108,-57 184,-130 89,-86 99,-59 167,-156 -52,-109 -208,-273 -294,-339 -132,44 -258,191 -335,283z"/>
   <path class="fil1" d="M4709 8062l878 1c-53,-165 -253,-268 -332,-433 -233,47 -269,189 -423,308 -82,63 -87,25 -123,124z"/>
   <path class="fil1" d="M4948 6772c91,141 183,212 265,334 127,-51 273,-198 346,-306 -37,-68 -95,-115 -142,-175 -58,-75 -79,-86 -140,-150 -118,61 -275,192 -329,297z"/>
   <path class="fil1" d="M3408 5020c18,99 49,136 102,189 27,27 49,46 72,68 68,62 11,25 83,66l335 -254c-30,-125 -150,-235 -223,-285 -153,49 -271,151 -369,216z"/>
   <path class="fil1" d="M3914 5618c47,120 125,193 229,264 116,-74 251,-196 334,-293 -54,-109 -133,-199 -221,-254 -79,34 -277,214 -342,283z"/>
   <path class="fil2" d="M4709 8062c36,-99 41,-61 123,-124 154,-119 190,-261 423,-308 79,165 279,268 332,433l-878 -1zm532 -505c-251,61 -202,122 -346,247 -110,96 -235,133 -287,325l1084 0c-64,-228 -249,-370 -419,-545 -3,-3 -13,-4 -15,-14 -3,-9 -11,-9 -17,-13z"/>
   <path class="fil2" d="M4400 6153c77,-92 203,-239 335,-283 86,66 242,230 294,339 -68,97 -78,70 -167,156 -76,73 -82,96 -184,130 -91,-80 -238,-210 -278,-342zm-83 -8c47,163 252,383 390,438l413 -372 -185 -230c-86,-109 -81,-150 -242,-195 -190,188 -138,63 -376,359z"/>
   <path class="fil3" d="M4948 6772c54,-105 211,-236 329,-297 61,64 82,75 140,150 47,60 105,107 142,175 -73,108 -219,255 -346,306 -82,-122 -174,-193 -265,-334zm-89 0c74,82 161,239 354,412 168,-77 345,-238 434,-384l-261 -311c-49,-55 -30,-45 -88,-95 -154,52 -350,263 -439,378z"/>
   <path class="fil2" d="M3914 5618c65,-69 263,-249 342,-283 88,55 167,145 221,254 -83,97 -218,219 -334,293 -104,-71 -182,-144 -229,-264zm646 5c-41,-167 -185,-314 -304,-375l-419 341c19,159 195,312 306,380l417 -346z"/>
   <path class="fil2" d="M3408 5020c98,-65 216,-167 369,-216 73,50 193,160 223,285l-335 254c-72,-41 -15,-4 -83,-66 -23,-22 -45,-41 -72,-68 -53,-53 -84,-90 -102,-189zm-82 34c49,122 233,317 339,371l408 -342c-39,-144 -171,-295 -268,-356 -196,50 -399,172 -479,327z"/>
   <polygon class="fil6" points="2419,6423 2405,6412 2361,6473 "/>
  </g>
 </g>
</svg>
